<?xml version="1.0" encoding="UTF-8" standalone="no"?>
<svg
   xmlns:dc="http://purl.org/dc/elements/1.1/"
   xmlns:cc="http://creativecommons.org/ns#"
   xmlns:rdf="http://www.w3.org/1999/02/22-rdf-syntax-ns#"
   xmlns:svg="http://www.w3.org/2000/svg"
   xmlns="http://www.w3.org/2000/svg"
   viewBox="0 0 700 121.99999"
   height="122"
   width="700"
   xml:space="preserve"
   version="1.1"
   id="svg2"><metadata
     id="metadata8"><rdf:RDF><cc:Work
         rdf:about=""><dc:format>image/svg+xml</dc:format><dc:type
           rdf:resource="http://purl.org/dc/dcmitype/StillImage" /><dc:title></dc:title></cc:Work></rdf:RDF></metadata><defs
     id="defs6" /><g
     transform="matrix(1.25,0,0,-1.25,0,121.99995)"
     id="g10"><g
       transform="matrix(2.0514026,0,0,2.0514026,-84.316828,-1516.2286)"
       id="g4802"><g
         id="g4742"><path
           d="m 70.573,768.799 1.5559,0.917 c 0.2742,0.162 0.3242,0.303 0.3223,0.332 0,0.014 -0.0391,0.068 -0.152,0.118 l -29.2371,14.942 c -0.2672,0.138 -0.4738,0.208 -0.618,0.208 -0.08,0 -0.15,-0.022 -0.2402,-0.075 l -0.0617,-0.038 c -0.2891,-0.169 -0.425,-0.277 -0.4422,-0.896 l -0.5949,-32.503 c -0.0121,-0.154 0.0148,-0.211 0.0262,-0.223 0.0136,-0.017 0.1226,-0.073 0.4488,0.118 l 1.5539,0.918 c 0.4531,0.266 0.448,0.589 0.4461,0.694 l 0.398,28.752 25.752,-13.307 c 0.3379,-0.192 0.6582,-0.067 0.8429,0.043"
           style="fill:#e84e0f;fill-opacity:1;fill-rule:nonzero;stroke:none"
           id="path260" /><path
           d="m 77.7703,758.011 -1.5898,0.857 c -0.1871,0.101 -0.5461,0.198 -0.8293,0.022 l -24.8039,-14.538 -1.9399,28.921 c -0.0082,0.308 -0.1672,0.536 -0.473,0.701 l -1.5903,0.857 c -0.1898,0.103 -0.3148,0.118 -0.3726,0.118 -0.0473,0 -0.0731,-0.01 -0.0793,-0.017 -0.0109,-0.012 -0.0348,-0.071 -0.0199,-0.191 l 2.3422,-32.747 c 0.041,-0.647 0.1957,-0.731 0.3328,-0.805 l 0.0672,-0.035 c 0.3929,-0.213 0.532,-0.171 0.9886,0.089 l 28.1223,16.309 c 0.1391,0.07 0.1769,0.125 0.1777,0.142 0,0.029 -0.0547,0.167 -0.3328,0.317"
           style="fill:#e84e0f;fill-opacity:1;fill-rule:nonzero;stroke:none"
           id="path262" /><path
           d="m 82.9656,768.537 -27.2539,17.724 c -0.1027,0.076 -0.1629,0.096 -0.1937,0.096 -0.0383,0 -0.1371,-0.131 -0.1453,-0.444 l -0.0469,-1.804 c -0.011,-0.526 0.2648,-0.693 0.3551,-0.749 L 79.8566,767.795 54.9289,753.002 c -0.2699,-0.146 -0.4019,-0.392 -0.4109,-0.74 l -0.0461,-1.803 c -0.0063,-0.243 0.0488,-0.388 0.098,-0.439 l 0.0258,-0.012 c 0.016,0 0.0742,0.005 0.168,0.069 l 28.1582,16.882 c 0.5597,0.331 0.566,0.512 0.5679,0.659 l 0.0032,0.083 c 0.0078,0.322 -0.0114,0.494 -0.5274,0.836"
           style="fill:#e84e0f;fill-opacity:1;fill-rule:nonzero;stroke:none"
           id="path264" /></g><g
         id="g4698"><path
           d="m 100.441,769.657 4.511,5.708 0,1.682 -12.6645,0 0,-3.16 7.441,0 -4.0012,-4.944 0.6372,-1.58 1.4019,0 c 3.3636,0 4.0266,-1.809 4.0266,-2.802 0,-1.427 -1.377,-2.547 -3.4664,-2.547 -1.9621,0 -3.568,0.202 -5.4024,0.942 l -1.325,-2.854 c 2.2434,-1.019 3.8731,-1.249 6.6,-1.249 4.3058,0 7.1598,2.141 7.1598,5.758 0,2.855 -2.013,4.435 -4.918,5.046"
           style="fill:#005067;fill-opacity:1;fill-rule:nonzero;stroke:none"
           id="path266" /><path
           d="m 112.263,778.576 c -1.121,0 -2.038,-0.943 -2.038,-2.089 0,-1.147 0.917,-2.066 2.038,-2.066 1.122,0 2.013,0.919 2.013,2.066 0,1.146 -0.891,2.089 -2.013,2.089"
           style="fill:#005067;fill-opacity:1;fill-rule:nonzero;stroke:none"
           id="path268" /><path
           d="m 110.505,759.083 3.5418,0 0,13.8359 -3.5418,0 0,-13.8359 z"
           style="fill:#005067;fill-opacity:1;fill-rule:nonzero;stroke:none"
           id="path270" /><path
           d="m 123.805,777.046 -3.644,0 0,-17.964 12.894,0 0,3.058 -9.25,0"
           style="fill:#005067;fill-opacity:1;fill-rule:nonzero;stroke:none"
           id="path272" /><path
           d="m 139.729,777.383 -0.943,0 c -0.186,0 -0.337,-0.151 -0.337,-0.337 l 0,-17.963 c 0,-0.187 0.151,-0.337 0.337,-0.337 l 0.943,0 c 0.185,0 0.336,0.15 0.336,0.337 l 0,17.963 c 0,0.186 -0.151,0.337 -0.336,0.337"
           style="fill:#005067;fill-opacity:1;fill-rule:nonzero;stroke:none"
           id="path274" /><path
           d="m 161.871,777.383 -0.943,0 c -0.185,0 -0.336,-0.151 -0.336,-0.337 l 0,-15.208 -12.552,15.421 c -0.063,0.079 -0.159,0.124 -0.26,0.124 l -0.637,0 c -0.186,0 -0.336,-0.151 -0.336,-0.337 l 0,-17.963 c 0,-0.187 0.15,-0.337 0.336,-0.337 l 0.943,0 c 0.186,0 0.336,0.15 0.336,0.337 l 0,15.21 12.577,-15.422 c 0.064,-0.079 0.159,-0.125 0.26,-0.125 l 0.612,0 c 0.185,0 0.336,0.15 0.336,0.337 l 0,17.963 c 0,0.186 -0.151,0.337 -0.336,0.337"
           style="fill:#005067;fill-opacity:1;fill-rule:nonzero;stroke:none"
           id="path276" /><path
           d="m 185.515,767.751 -8.204,0 c -0.187,0 -0.337,-0.151 -0.337,-0.336 l 0,-0.866 c 0,-0.187 0.15,-0.336 0.337,-0.336 l 6.927,0 0,-3.954 c -1.813,-1.325 -4.045,-2.025 -6.468,-2.025 -4.495,0 -8.15,3.507 -8.15,7.818 0,4.297 3.655,7.792 8.15,7.792 2.443,0 4.652,-0.792 6.218,-2.23 0.136,-0.125 0.348,-0.117 0.475,0.019 l 0.636,0.688 c 0.062,0.066 0.094,0.152 0.09,0.242 -0.003,0.089 -0.043,0.173 -0.108,0.234 -1.883,1.742 -4.411,2.662 -7.311,2.662 -5.399,0 -9.791,-4.22 -9.791,-9.407 0,-5.187 4.392,-9.407 9.791,-9.407 2.959,0 5.86,0.984 7.959,2.7 0.078,0.064 0.123,0.159 0.123,0.26 l 0,5.81 c 0,0.185 -0.152,0.336 -0.337,0.336"
           style="fill:#005067;fill-opacity:1;fill-rule:nonzero;stroke:none"
           id="path278" /><path
           d="m 204.573,760.311 -11.08,0 0,6.716 8.966,0 c 0.184,0 0.336,0.15 0.336,0.336 l 0,0.867 c 0,0.186 -0.152,0.336 -0.336,0.336 l -8.966,0 0,7.254 10.545,0 c 0.185,0 0.335,0.148 0.335,0.335 l 0,0.891 c 0,0.186 -0.15,0.336 -0.335,0.336 l -11.822,0 c -0.187,0 -0.337,-0.15 -0.337,-0.336 l 0,-17.964 c 0,-0.186 0.15,-0.336 0.337,-0.336 l 12.357,0 c 0.186,0 0.336,0.15 0.336,0.336 l 0,0.893 c 0,0.184 -0.15,0.336 -0.336,0.336"
           style="fill:#005067;fill-opacity:1;fill-rule:nonzero;stroke:none"
           id="path280" /><path
           d="m 225.645,777.383 -0.943,0 c -0.186,0 -0.336,-0.151 -0.336,-0.337 l 0,-15.208 -12.552,15.421 c -0.062,0.079 -0.159,0.124 -0.26,0.124 l -0.638,0 c -0.184,0 -0.336,-0.151 -0.336,-0.337 l 0,-17.963 c 0,-0.187 0.152,-0.337 0.336,-0.337 l 0.943,0 c 0.187,0 0.337,0.15 0.337,0.337 l 0,15.21 12.577,-15.422 c 0.063,-0.079 0.159,-0.125 0.259,-0.125 l 0.613,0 c 0.185,0 0.335,0.15 0.335,0.337 l 0,17.963 c 0,0.186 -0.15,0.337 -0.335,0.337"
           style="fill:#005067;fill-opacity:1;fill-rule:nonzero;stroke:none"
           id="path282" /><path
           d="m 234,777.383 -0.943,0 c -0.186,0 -0.336,-0.151 -0.336,-0.337 l 0,-17.963 c 0,-0.187 0.15,-0.337 0.336,-0.337 l 0.943,0 c 0.185,0 0.336,0.15 0.336,0.337 l 0,17.963 c 0,0.186 -0.151,0.337 -0.336,0.337"
           style="fill:#005067;fill-opacity:1;fill-rule:nonzero;stroke:none"
           id="path284" /><path
           d="m 253.772,760.311 -11.079,0 0,6.716 8.965,0 c 0.185,0 0.336,0.15 0.336,0.336 l 0,0.867 c 0,0.186 -0.151,0.336 -0.336,0.336 l -8.965,0 0,7.254 10.544,0 c 0.186,0 0.336,0.148 0.336,0.335 l 0,0.891 c 0,0.186 -0.15,0.336 -0.336,0.336 l -11.823,0 c -0.187,0 -0.337,-0.15 -0.337,-0.336 l 0,-17.964 c 0,-0.186 0.15,-0.336 0.337,-0.336 l 12.358,0 c 0.185,0 0.336,0.15 0.336,0.336 l 0,0.893 c 0,0.184 -0.151,0.336 -0.336,0.336"
           style="fill:#005067;fill-opacity:1;fill-rule:nonzero;stroke:none"
           id="path286" /><path
           d="m 274.512,777.383 -0.942,0 c -0.187,0 -0.337,-0.151 -0.337,-0.337 l 0,-10.651 c 0,-3.784 -2.283,-6.134 -5.957,-6.134 -3.644,0 -5.908,2.35 -5.908,6.134 l 0,10.651 c 0,0.186 -0.15,0.337 -0.336,0.337 l -0.917,0 c -0.186,0 -0.337,-0.151 -0.337,-0.337 l 0,-10.752 c 0,-4.648 2.944,-7.649 7.498,-7.649 4.528,0 7.572,3.074 7.572,7.649 l 0,10.752 c 0,0.186 -0.151,0.337 -0.336,0.337"
           style="fill:#005067;fill-opacity:1;fill-rule:nonzero;stroke:none"
           id="path288" /><path
           d="m 291.254,765.36 c 2.689,0.826 4.105,2.874 4.105,5.954 0,1.824 -0.641,6.068 -6.58,6.068 l -6.905,0 c -0.186,0 -0.336,-0.149 -0.336,-0.335 l 0,-17.964 c 0,-0.186 0.15,-0.336 0.336,-0.336 l 0.944,0 c 0.184,0 0.336,0.15 0.336,0.336 l 0,5.856 4.964,0 c 0.491,0 0.987,0.02 1.446,0.06 l 4.499,-6.116 c 0.064,-0.086 0.164,-0.136 0.271,-0.136 l 1.173,0 c 0.127,0 0.243,0.072 0.3,0.184 0.057,0.114 0.045,0.25 -0.032,0.353 l -4.521,6.076 z m -8.1,10.459 5.575,0 c 4.318,0 4.964,-2.839 4.964,-4.531 0,-3.976 -3.046,-4.811 -5.602,-4.811 l -4.937,0"
           style="fill:#005067;fill-opacity:1;fill-rule:nonzero;stroke:none"
           id="path290" /><path
           d="m 307.587,768.862 c -3.191,0.785 -5.63,1.554 -5.63,3.674 0,2.056 1.878,3.385 4.785,3.385 1.674,0 4.151,-0.433 5.647,-1.258 0.08,-0.044 0.173,-0.055 0.259,-0.029 0.086,0.026 0.159,0.086 0.201,0.165 l 0.433,0.815 c 0.087,0.163 0.025,0.366 -0.136,0.454 -1.518,0.821 -4.21,1.417 -6.404,1.417 -3.844,0 -6.425,-1.999 -6.425,-4.974 0,-3.28 3.116,-4.305 6.879,-5.219 2.975,-0.737 5.249,-1.472 5.249,-3.623 0,-2.182 -1.951,-3.537 -5.091,-3.537 -2.559,0 -3.633,0.186 -6.299,1.494 -0.08,0.039 -0.173,0.045 -0.257,0.016 -0.085,-0.028 -0.155,-0.09 -0.194,-0.171 l -0.383,-0.79 c -0.079,-0.166 -0.011,-0.364 0.153,-0.447 2.918,-1.459 4.111,-1.667 6.98,-1.667 4.151,0 6.732,1.966 6.732,5.127 0,3.273 -3.074,4.312 -6.499,5.168"
           style="fill:#005067;fill-opacity:1;fill-rule:nonzero;stroke:none"
           id="path292" /></g><g
         id="g4773"><path
           d="m 258.599,739.118 0,3.134 c -0.177,-0.211 -0.39,-0.376 -0.638,-0.493 -0.248,-0.119 -0.518,-0.177 -0.809,-0.177 l -0.195,0 c -0.262,0 -0.508,0.05 -0.739,0.149 -0.232,0.098 -0.434,0.234 -0.607,0.407 -0.173,0.173 -0.309,0.374 -0.407,0.606 -0.099,0.232 -0.149,0.478 -0.149,0.74 l 0,2.918 c 0,0.262 0.05,0.508 0.149,0.739 0.098,0.232 0.234,0.433 0.407,0.607 0.173,0.172 0.375,0.309 0.607,0.408 0.231,0.099 0.477,0.148 0.739,0.148 l 0.195,0 c 0.318,0 0.607,-0.071 0.872,-0.212 0.266,-0.141 0.487,-0.332 0.664,-0.571 l 0.43,0.657 0.259,0 0,-9.06 -0.778,0 z m 0,7.328 c 0,0.156 -0.029,0.302 -0.088,0.439 -0.059,0.137 -0.139,0.256 -0.241,0.357 -0.1,0.102 -0.22,0.182 -0.356,0.24 -0.137,0.06 -0.283,0.089 -0.439,0.089 l -0.518,0 c -0.157,0 -0.303,-0.029 -0.439,-0.089 -0.138,-0.058 -0.257,-0.138 -0.357,-0.24 -0.102,-0.101 -0.182,-0.22 -0.241,-0.357 -0.059,-0.137 -0.086,-0.283 -0.086,-0.439 l 0,-3.006 c 0,-0.157 0.027,-0.303 0.086,-0.44 0.059,-0.136 0.139,-0.256 0.241,-0.357 0.1,-0.101 0.219,-0.181 0.357,-0.24 0.136,-0.059 0.282,-0.088 0.439,-0.088 l 0.518,0 c 0.156,0 0.302,0.029 0.439,0.088 0.136,0.059 0.256,0.139 0.356,0.24 0.102,0.101 0.182,0.221 0.241,0.357 0.059,0.137 0.088,0.283 0.088,0.44"
           style="fill:#005067;fill-opacity:1;fill-rule:nonzero;stroke:none"
           id="path338" /><path
           d="m 139.436,749.586 0,-0.891 -5.547,-2.458 5.547,-2.444 0,-0.897 -6.47,2.887 0,0.922"
           style="fill:#e84e0f;fill-opacity:1;fill-rule:nonzero;stroke:none"
           id="path294" /><path
           d="m 140.472,740.931 3.607,10.607 0.815,0 -3.606,-10.607 -0.816,0 z"
           style="fill:#e84e0f;fill-opacity:1;fill-rule:nonzero;stroke:none"
           id="path296" /><path
           d="m 146.19,741.708 0.77734,0 0,9.05898 -0.77734,0 0,-9.05898 z"
           style="fill:#005067;fill-opacity:1;fill-rule:nonzero;stroke:none"
           id="path298" /><path
           d="m 152.953,742.744 c -0.1,-0.232 -0.235,-0.433 -0.408,-0.606 -0.173,-0.173 -0.375,-0.309 -0.607,-0.407 -0.231,-0.1 -0.478,-0.149 -0.739,-0.149 l -0.517,0 c -0.261,0 -0.508,0.049 -0.74,0.149 -0.231,0.098 -0.434,0.234 -0.606,0.407 -0.173,0.173 -0.309,0.374 -0.408,0.606 -0.098,0.232 -0.148,0.478 -0.148,0.74 l 0,2.918 c 0,0.262 0.05,0.508 0.148,0.739 0.099,0.232 0.235,0.433 0.408,0.607 0.172,0.172 0.375,0.308 0.606,0.408 0.232,0.099 0.479,0.147 0.74,0.147 l 0.517,0 c 0.261,0 0.508,-0.048 0.739,-0.147 0.232,-0.1 0.434,-0.236 0.607,-0.408 0.173,-0.174 0.308,-0.375 0.408,-0.607 0.098,-0.231 0.148,-0.477 0.148,-0.739 l 0,-1.523 -3.544,0 0,-1.44 c 0,-0.156 0.029,-0.302 0.089,-0.439 0.058,-0.136 0.138,-0.256 0.239,-0.357 0.102,-0.101 0.22,-0.181 0.357,-0.24 0.137,-0.059 0.284,-0.089 0.44,-0.089 l 0.517,0 c 0.156,0 0.302,0.03 0.44,0.089 0.136,0.059 0.255,0.139 0.356,0.24 0.101,0.101 0.181,0.221 0.241,0.357 0.058,0.137 0.088,0.283 0.088,0.439 l 0,0.43 0.777,-0.128 0,-0.257 c 0,-0.262 -0.05,-0.508 -0.148,-0.74 m -0.629,3.702 c 0,0.156 -0.03,0.302 -0.088,0.439 -0.06,0.137 -0.14,0.256 -0.241,0.357 -0.101,0.102 -0.22,0.181 -0.356,0.239 -0.138,0.06 -0.284,0.09 -0.44,0.09 l -0.517,0 c -0.156,0 -0.303,-0.03 -0.44,-0.09 -0.137,-0.058 -0.255,-0.137 -0.357,-0.239 -0.101,-0.101 -0.181,-0.22 -0.239,-0.357 -0.06,-0.137 -0.089,-0.283 -0.089,-0.439 l 0,-0.96 2.767,0"
           style="fill:#005067;fill-opacity:1;fill-rule:nonzero;stroke:none"
           id="path300" /><path
           d="m 159.103,743.351 c 0,-0.262 -0.053,-0.501 -0.158,-0.717 -0.105,-0.218 -0.248,-0.404 -0.429,-0.559 -0.182,-0.156 -0.391,-0.278 -0.63,-0.364 -0.237,-0.086 -0.487,-0.129 -0.748,-0.129 l -0.517,0 c -0.262,0 -0.512,0.049 -0.75,0.149 -0.238,0.098 -0.446,0.234 -0.625,0.407 -0.179,0.173 -0.322,0.374 -0.429,0.606 -0.108,0.232 -0.162,0.478 -0.162,0.74 l 0,0.258 0.777,0.127 0,-0.43 c 0,-0.156 0.033,-0.302 0.098,-0.439 0.065,-0.137 0.153,-0.256 0.263,-0.357 0.109,-0.101 0.235,-0.181 0.379,-0.24 0.143,-0.059 0.292,-0.088 0.449,-0.088 l 0.517,0 c 0.156,0 0.306,0.023 0.449,0.069 0.142,0.046 0.27,0.113 0.382,0.199 0.111,0.086 0.2,0.191 0.265,0.313 0.066,0.122 0.098,0.261 0.098,0.417 0,0.231 -0.05,0.421 -0.152,0.568 -0.101,0.148 -0.234,0.271 -0.401,0.37 -0.166,0.099 -0.355,0.181 -0.568,0.247 -0.213,0.065 -0.43,0.13 -0.654,0.195 -0.223,0.065 -0.441,0.14 -0.654,0.225 -0.213,0.084 -0.402,0.195 -0.569,0.331 -0.166,0.137 -0.299,0.308 -0.401,0.515 -0.101,0.206 -0.151,0.463 -0.151,0.77 0,0.263 0.05,0.501 0.151,0.718 0.102,0.217 0.238,0.403 0.411,0.559 0.173,0.156 0.374,0.277 0.604,0.363 0.229,0.087 0.474,0.129 0.736,0.129 l 0.454,0 c 0.261,0 0.508,-0.049 0.74,-0.147 0.231,-0.1 0.433,-0.236 0.606,-0.408 0.172,-0.173 0.308,-0.375 0.407,-0.607 0.099,-0.231 0.149,-0.477 0.149,-0.739 l 0,-0.025 -0.777,-0.126 0,0.195 c 0,0.156 -0.03,0.302 -0.089,0.439 -0.059,0.137 -0.139,0.256 -0.24,0.357 -0.101,0.102 -0.22,0.181 -0.357,0.24 -0.137,0.059 -0.283,0.089 -0.439,0.089 l -0.454,0 c -0.156,0 -0.302,-0.023 -0.44,-0.069 -0.137,-0.047 -0.255,-0.113 -0.356,-0.2 -0.102,-0.086 -0.182,-0.19 -0.241,-0.313 -0.059,-0.121 -0.088,-0.26 -0.088,-0.416 0,-0.223 0.05,-0.406 0.151,-0.547 0.102,-0.141 0.236,-0.26 0.402,-0.357 0.166,-0.096 0.356,-0.178 0.568,-0.243 0.213,-0.065 0.429,-0.133 0.651,-0.202 0.221,-0.069 0.438,-0.148 0.651,-0.238 0.212,-0.088 0.402,-0.201 0.568,-0.34 0.167,-0.139 0.3,-0.313 0.401,-0.521 0.102,-0.209 0.152,-0.467 0.152,-0.774"
           style="fill:#005067;fill-opacity:1;fill-rule:nonzero;stroke:none"
           id="path302" /><path
           d="m 168.017,743.351 c 0,-0.262 -0.053,-0.501 -0.158,-0.717 -0.105,-0.218 -0.248,-0.404 -0.429,-0.559 -0.182,-0.156 -0.391,-0.278 -0.629,-0.364 -0.238,-0.086 -0.488,-0.129 -0.749,-0.129 l -0.517,0 c -0.262,0 -0.512,0.049 -0.749,0.149 -0.238,0.098 -0.447,0.234 -0.626,0.407 -0.179,0.173 -0.322,0.374 -0.429,0.606 -0.107,0.232 -0.162,0.478 -0.162,0.74 l 0,0.258 0.777,0.127 0,-0.43 c 0,-0.156 0.033,-0.302 0.099,-0.439 0.064,-0.137 0.152,-0.256 0.262,-0.357 0.109,-0.101 0.235,-0.181 0.379,-0.24 0.143,-0.059 0.293,-0.088 0.449,-0.088 l 0.517,0 c 0.156,0 0.306,0.023 0.449,0.069 0.143,0.046 0.271,0.113 0.382,0.199 0.112,0.086 0.2,0.191 0.265,0.313 0.066,0.122 0.098,0.261 0.098,0.417 0,0.231 -0.05,0.421 -0.152,0.568 -0.1,0.148 -0.234,0.271 -0.4,0.37 -0.167,0.099 -0.356,0.181 -0.569,0.247 -0.213,0.065 -0.43,0.13 -0.655,0.195 -0.222,0.065 -0.44,0.14 -0.653,0.225 -0.213,0.084 -0.402,0.195 -0.569,0.331 -0.166,0.137 -0.299,0.308 -0.4,0.515 -0.101,0.206 -0.152,0.463 -0.152,0.77 0,0.263 0.051,0.501 0.152,0.718 0.101,0.217 0.237,0.403 0.41,0.559 0.173,0.156 0.374,0.277 0.604,0.363 0.229,0.087 0.474,0.129 0.736,0.129 l 0.454,0 c 0.261,0 0.508,-0.049 0.74,-0.147 0.231,-0.1 0.434,-0.236 0.606,-0.408 0.172,-0.173 0.309,-0.375 0.408,-0.607 0.098,-0.231 0.148,-0.477 0.148,-0.739 l 0,-0.025 -0.777,-0.126 0,0.195 c 0,0.156 -0.029,0.302 -0.089,0.439 -0.059,0.137 -0.138,0.256 -0.24,0.357 -0.101,0.102 -0.22,0.181 -0.357,0.24 -0.137,0.059 -0.283,0.089 -0.439,0.089 l -0.454,0 c -0.156,0 -0.302,-0.023 -0.44,-0.069 -0.137,-0.047 -0.255,-0.113 -0.356,-0.2 -0.101,-0.086 -0.182,-0.19 -0.241,-0.313 -0.058,-0.121 -0.088,-0.26 -0.088,-0.416 0,-0.223 0.05,-0.406 0.151,-0.547 0.102,-0.141 0.235,-0.26 0.402,-0.357 0.166,-0.096 0.356,-0.178 0.568,-0.243 0.213,-0.065 0.429,-0.133 0.651,-0.202 0.221,-0.069 0.438,-0.148 0.651,-0.238 0.212,-0.088 0.402,-0.201 0.568,-0.34 0.167,-0.139 0.301,-0.313 0.401,-0.521 0.102,-0.209 0.152,-0.467 0.152,-0.774"
           style="fill:#005067;fill-opacity:1;fill-rule:nonzero;stroke:none"
           id="path304" /><path
           d="m 173.681,742.744 c -0.098,-0.231 -0.234,-0.433 -0.407,-0.606 -0.173,-0.173 -0.375,-0.309 -0.607,-0.407 -0.232,-0.1 -0.478,-0.149 -0.739,-0.149 l -0.518,0 c -0.261,0 -0.508,0.049 -0.74,0.149 -0.231,0.098 -0.434,0.234 -0.606,0.407 -0.173,0.173 -0.308,0.375 -0.408,0.606 -0.098,0.231 -0.147,0.478 -0.147,0.74 l 0,2.918 c 0,0.262 0.049,0.508 0.147,0.739 0.1,0.232 0.235,0.434 0.408,0.607 0.172,0.172 0.375,0.308 0.606,0.408 0.232,0.098 0.479,0.147 0.74,0.147 l 0.518,0 c 0.261,0 0.507,-0.049 0.739,-0.147 0.232,-0.1 0.434,-0.236 0.607,-0.408 0.173,-0.173 0.309,-0.375 0.407,-0.607 0.099,-0.231 0.148,-0.477 0.148,-0.739 l 0,-0.259 -0.777,-0.126 0,0.429 c 0,0.156 -0.029,0.302 -0.088,0.439 -0.059,0.137 -0.139,0.256 -0.241,0.357 -0.1,0.102 -0.219,0.181 -0.356,0.24 -0.138,0.059 -0.284,0.089 -0.439,0.089 l -0.518,0 c -0.156,0 -0.302,-0.03 -0.439,-0.089 -0.137,-0.059 -0.256,-0.138 -0.357,-0.24 -0.101,-0.101 -0.181,-0.22 -0.24,-0.357 -0.06,-0.137 -0.089,-0.283 -0.089,-0.439 l 0,-3.007 c 0,-0.156 0.029,-0.302 0.089,-0.439 0.059,-0.136 0.139,-0.256 0.24,-0.357 0.101,-0.101 0.22,-0.181 0.357,-0.24 0.137,-0.059 0.283,-0.089 0.439,-0.089 l 0.518,0 c 0.155,0 0.301,0.03 0.439,0.089 0.137,0.059 0.256,0.139 0.356,0.24 0.102,0.101 0.182,0.221 0.241,0.357 0.059,0.137 0.088,0.283 0.088,0.439 l 0,0.43 0.777,-0.127 0,-0.258 c 0,-0.262 -0.049,-0.509 -0.148,-0.74"
           style="fill:#005067;fill-opacity:1;fill-rule:nonzero;stroke:none"
           id="path306" /><path
           d="m 175.579,749.732 0.90391,0 0,1.03594 -0.90391,0 0,-1.03594 z m 0.063,-8.024 0.77695,0 0,6.46875 -0.77695,0 0,-6.46875 z"
           style="fill:#005067;fill-opacity:1;fill-rule:nonzero;stroke:none"
           id="path308" /><path
           d="m 182.405,742.744 c -0.099,-0.232 -0.234,-0.433 -0.407,-0.606 -0.172,-0.173 -0.375,-0.309 -0.606,-0.407 -0.232,-0.1 -0.478,-0.149 -0.739,-0.149 l -0.518,0 c -0.262,0 -0.509,0.049 -0.74,0.149 -0.232,0.098 -0.434,0.234 -0.606,0.407 -0.173,0.173 -0.309,0.374 -0.408,0.606 -0.098,0.232 -0.148,0.478 -0.148,0.74 l 0,2.918 c 0,0.262 0.05,0.508 0.148,0.739 0.099,0.232 0.235,0.433 0.408,0.607 0.172,0.172 0.374,0.308 0.606,0.408 0.231,0.099 0.478,0.147 0.74,0.147 l 0.518,0 c 0.261,0 0.507,-0.048 0.739,-0.147 0.231,-0.1 0.434,-0.236 0.606,-0.408 0.173,-0.174 0.308,-0.375 0.407,-0.607 0.1,-0.231 0.149,-0.477 0.149,-0.739 l 0,-1.523 -3.543,0 0,-1.44 c 0,-0.156 0.028,-0.302 0.087,-0.439 0.059,-0.136 0.139,-0.256 0.24,-0.357 0.101,-0.101 0.22,-0.181 0.358,-0.24 0.136,-0.059 0.283,-0.089 0.439,-0.089 l 0.518,0 c 0.156,0 0.301,0.03 0.439,0.089 0.136,0.059 0.255,0.139 0.356,0.24 0.102,0.101 0.181,0.221 0.241,0.357 0.058,0.137 0.088,0.283 0.088,0.439 l 0,0.43 0.777,-0.128 0,-0.257 c 0,-0.262 -0.049,-0.508 -0.149,-0.74 m -0.628,3.702 c 0,0.156 -0.03,0.302 -0.088,0.439 -0.06,0.137 -0.139,0.256 -0.241,0.357 -0.101,0.102 -0.22,0.181 -0.356,0.239 -0.138,0.06 -0.283,0.09 -0.439,0.09 l -0.518,0 c -0.156,0 -0.303,-0.03 -0.439,-0.09 -0.138,-0.058 -0.257,-0.137 -0.358,-0.239 -0.101,-0.101 -0.181,-0.22 -0.24,-0.357 -0.059,-0.137 -0.087,-0.283 -0.087,-0.439 l 0,-0.96 2.766,0"
           style="fill:#005067;fill-opacity:1;fill-rule:nonzero;stroke:none"
           id="path310" /><path
           d="m 187.652,741.708 0,4.738 c 0,0.156 -0.03,0.302 -0.088,0.439 -0.06,0.137 -0.139,0.256 -0.241,0.357 -0.101,0.102 -0.22,0.181 -0.356,0.24 -0.138,0.059 -0.283,0.089 -0.439,0.089 l -0.518,0 c -0.156,0 -0.303,-0.03 -0.439,-0.089 -0.138,-0.059 -0.257,-0.138 -0.358,-0.24 -0.101,-0.101 -0.181,-0.22 -0.24,-0.357 -0.059,-0.137 -0.087,-0.283 -0.087,-0.439 l 0,-4.738 -0.778,0 0,6.469 0.259,0 0.423,-0.657 c 0.177,0.24 0.399,0.431 0.666,0.572 0.268,0.141 0.56,0.212 0.875,0.212 l 0.197,0 c 0.261,0 0.507,-0.05 0.739,-0.148 0.231,-0.099 0.434,-0.236 0.606,-0.407 0.173,-0.174 0.308,-0.376 0.408,-0.608 0.099,-0.231 0.148,-0.478 0.148,-0.739 l 0,-4.694"
           style="fill:#005067;fill-opacity:1;fill-rule:nonzero;stroke:none"
           id="path312" /><path
           d="m 194.156,742.744 c -0.097,-0.231 -0.235,-0.433 -0.407,-0.606 -0.172,-0.173 -0.375,-0.309 -0.606,-0.407 -0.232,-0.1 -0.479,-0.149 -0.741,-0.149 l -0.516,0 c -0.262,0 -0.509,0.049 -0.74,0.149 -0.232,0.098 -0.433,0.234 -0.607,0.407 -0.173,0.173 -0.308,0.375 -0.408,0.606 -0.097,0.231 -0.147,0.478 -0.147,0.74 l 0,2.918 c 0,0.262 0.05,0.508 0.147,0.739 0.1,0.232 0.235,0.434 0.408,0.607 0.174,0.172 0.375,0.308 0.607,0.408 0.231,0.098 0.478,0.147 0.74,0.147 l 0.516,0 c 0.262,0 0.509,-0.049 0.741,-0.147 0.231,-0.1 0.434,-0.236 0.606,-0.408 0.172,-0.173 0.31,-0.375 0.407,-0.607 0.099,-0.231 0.149,-0.477 0.149,-0.739 l 0,-0.259 -0.778,-0.126 0,0.429 c 0,0.156 -0.029,0.302 -0.088,0.439 -0.059,0.137 -0.139,0.256 -0.241,0.357 -0.1,0.102 -0.219,0.181 -0.355,0.24 -0.139,0.059 -0.284,0.089 -0.441,0.089 l -0.516,0 c -0.157,0 -0.302,-0.03 -0.441,-0.089 -0.136,-0.059 -0.255,-0.138 -0.356,-0.24 -0.101,-0.101 -0.18,-0.22 -0.24,-0.357 -0.06,-0.137 -0.088,-0.283 -0.088,-0.439 l 0,-3.007 c 0,-0.156 0.028,-0.302 0.088,-0.439 0.06,-0.136 0.139,-0.256 0.24,-0.357 0.101,-0.101 0.22,-0.181 0.356,-0.24 0.139,-0.059 0.284,-0.089 0.441,-0.089 l 0.516,0 c 0.157,0 0.302,0.03 0.441,0.089 0.136,0.059 0.255,0.139 0.355,0.24 0.102,0.101 0.182,0.221 0.241,0.357 0.059,0.137 0.088,0.283 0.088,0.439 l 0,0.43 0.778,-0.127 0,-0.258 c 0,-0.262 -0.05,-0.509 -0.149,-0.74"
           style="fill:#005067;fill-opacity:1;fill-rule:nonzero;stroke:none"
           id="path314" /><path
           d="m 200.032,742.744 c -0.099,-0.232 -0.235,-0.433 -0.408,-0.606 -0.172,-0.173 -0.375,-0.309 -0.606,-0.407 -0.232,-0.1 -0.478,-0.149 -0.739,-0.149 l -0.518,0 c -0.261,0 -0.508,0.049 -0.739,0.149 -0.232,0.098 -0.434,0.234 -0.607,0.407 -0.172,0.173 -0.308,0.374 -0.408,0.606 -0.098,0.232 -0.148,0.478 -0.148,0.74 l 0,2.918 c 0,0.262 0.05,0.508 0.148,0.739 0.1,0.232 0.236,0.433 0.408,0.607 0.173,0.172 0.375,0.308 0.607,0.408 0.231,0.099 0.478,0.147 0.739,0.147 l 0.518,0 c 0.261,0 0.507,-0.048 0.739,-0.147 0.231,-0.1 0.434,-0.236 0.606,-0.408 0.173,-0.174 0.309,-0.375 0.408,-0.607 0.099,-0.231 0.148,-0.477 0.148,-0.739 l 0,-1.523 -3.543,0 0,-1.44 c 0,-0.156 0.028,-0.302 0.088,-0.439 0.058,-0.136 0.139,-0.256 0.24,-0.357 0.101,-0.101 0.219,-0.181 0.357,-0.24 0.136,-0.059 0.283,-0.089 0.439,-0.089 l 0.518,0 c 0.156,0 0.302,0.03 0.439,0.089 0.136,0.059 0.256,0.139 0.356,0.24 0.102,0.101 0.181,0.221 0.241,0.357 0.059,0.137 0.088,0.283 0.088,0.439 l 0,0.43 0.777,-0.128 0,-0.257 c 0,-0.262 -0.049,-0.508 -0.148,-0.74 m -0.629,3.702 c 0,0.156 -0.029,0.302 -0.088,0.439 -0.06,0.137 -0.139,0.256 -0.241,0.357 -0.1,0.102 -0.22,0.181 -0.356,0.239 -0.137,0.06 -0.283,0.09 -0.439,0.09 l -0.518,0 c -0.156,0 -0.303,-0.03 -0.439,-0.09 -0.138,-0.058 -0.256,-0.137 -0.357,-0.239 -0.101,-0.101 -0.182,-0.22 -0.24,-0.357 -0.06,-0.137 -0.088,-0.283 -0.088,-0.439 l 0,-0.96 2.766,0"
           style="fill:#005067;fill-opacity:1;fill-rule:nonzero;stroke:none"
           id="path316" /><path
           d="m 206.182,743.351 c 0,-0.262 -0.053,-0.501 -0.159,-0.717 -0.105,-0.218 -0.248,-0.404 -0.428,-0.559 -0.182,-0.156 -0.392,-0.278 -0.63,-0.364 -0.237,-0.086 -0.487,-0.129 -0.748,-0.129 l -0.518,0 c -0.261,0 -0.511,0.049 -0.749,0.149 -0.237,0.098 -0.446,0.234 -0.625,0.407 -0.179,0.173 -0.323,0.374 -0.43,0.606 -0.107,0.232 -0.161,0.478 -0.161,0.74 l 0,0.258 0.777,0.127 0,-0.43 c 0,-0.156 0.033,-0.302 0.098,-0.439 0.065,-0.137 0.154,-0.256 0.262,-0.357 0.11,-0.101 0.235,-0.181 0.38,-0.24 0.142,-0.059 0.291,-0.088 0.448,-0.088 l 0.518,0 c 0.156,0 0.305,0.023 0.449,0.069 0.142,0.046 0.27,0.113 0.382,0.199 0.11,0.086 0.2,0.191 0.265,0.313 0.066,0.122 0.098,0.261 0.098,0.417 0,0.231 -0.05,0.421 -0.152,0.568 -0.101,0.148 -0.234,0.271 -0.401,0.37 -0.167,0.099 -0.356,0.181 -0.569,0.247 -0.213,0.065 -0.43,0.13 -0.654,0.195 -0.222,0.065 -0.44,0.14 -0.653,0.225 -0.213,0.084 -0.402,0.195 -0.569,0.331 -0.166,0.137 -0.3,0.308 -0.4,0.515 -0.103,0.206 -0.153,0.463 -0.153,0.77 0,0.263 0.05,0.501 0.153,0.718 0.1,0.217 0.236,0.403 0.41,0.559 0.173,0.156 0.373,0.277 0.603,0.363 0.23,0.087 0.475,0.129 0.737,0.129 l 0.454,0 c 0.261,0 0.507,-0.049 0.739,-0.147 0.232,-0.1 0.434,-0.236 0.607,-0.408 0.172,-0.173 0.308,-0.375 0.407,-0.607 0.099,-0.231 0.149,-0.477 0.149,-0.739 l 0,-0.025 -0.778,-0.126 0,0.195 c 0,0.156 -0.03,0.302 -0.088,0.439 -0.059,0.137 -0.139,0.256 -0.24,0.357 -0.1,0.102 -0.22,0.181 -0.357,0.24 -0.137,0.059 -0.283,0.089 -0.439,0.089 l -0.454,0 c -0.157,0 -0.302,-0.023 -0.44,-0.069 -0.137,-0.047 -0.256,-0.113 -0.356,-0.2 -0.103,-0.086 -0.182,-0.19 -0.241,-0.313 -0.059,-0.121 -0.088,-0.26 -0.088,-0.416 0,-0.223 0.05,-0.406 0.151,-0.547 0.101,-0.141 0.235,-0.26 0.401,-0.357 0.166,-0.096 0.356,-0.178 0.568,-0.243 0.214,-0.065 0.43,-0.133 0.652,-0.202 0.22,-0.069 0.438,-0.148 0.65,-0.238 0.213,-0.088 0.403,-0.201 0.569,-0.34 0.166,-0.139 0.299,-0.313 0.401,-0.521 0.101,-0.209 0.152,-0.467 0.152,-0.774"
           style="fill:#005067;fill-opacity:1;fill-rule:nonzero;stroke:none"
           id="path318" /><path
           d="m 210.844,749.732 0.90391,0 0,1.03594 -0.90391,0 0,-1.03594 z m 0.063,-8.024 0.77695,0 0,6.46875 -0.77695,0 0,-6.46875 z"
           style="fill:#005067;fill-opacity:1;fill-rule:nonzero;stroke:none"
           id="path320" /><path
           d="m 217.042,741.708 0,4.738 c 0,0.156 -0.03,0.302 -0.088,0.439 -0.06,0.137 -0.139,0.256 -0.241,0.357 -0.101,0.102 -0.22,0.181 -0.356,0.24 -0.138,0.059 -0.283,0.089 -0.439,0.089 l -0.518,0 c -0.157,0 -0.303,-0.03 -0.44,-0.089 -0.137,-0.059 -0.255,-0.138 -0.357,-0.24 -0.101,-0.101 -0.181,-0.22 -0.24,-0.357 -0.059,-0.137 -0.087,-0.283 -0.087,-0.439 l 0,-4.738 -0.778,0 0,6.469 0.259,0 0.423,-0.657 c 0.177,0.24 0.398,0.431 0.666,0.572 0.268,0.141 0.56,0.212 0.876,0.212 l 0.196,0 c 0.261,0 0.507,-0.05 0.739,-0.148 0.231,-0.099 0.434,-0.236 0.606,-0.407 0.173,-0.174 0.309,-0.376 0.407,-0.608 0.099,-0.231 0.149,-0.478 0.149,-0.739 l 0,-4.694"
           style="fill:#005067;fill-opacity:1;fill-rule:nonzero;stroke:none"
           id="path322" /><path
           d="m 221.597,750.028 c -0.131,0 -0.252,-0.024 -0.363,-0.073 -0.113,-0.048 -0.21,-0.114 -0.295,-0.199 -0.084,-0.083 -0.15,-0.182 -0.198,-0.297 -0.048,-0.113 -0.073,-0.235 -0.073,-0.365 l 0,-0.917 1.509,0 0,-0.739 -1.509,0 0,-5.73 -0.778,0 0,5.73 -1.167,0 0,0.739 1.167,0 0,0.878 c 0,0.236 0.046,0.458 0.134,0.667 0.089,0.208 0.21,0.391 0.366,0.546 0.156,0.156 0.337,0.278 0.544,0.367 0.206,0.088 0.427,0.133 0.663,0.133 l 0.714,0 0,-0.74"
           style="fill:#005067;fill-opacity:1;fill-rule:nonzero;stroke:none"
           id="path324" /><path
           d="m 227.261,742.744 c -0.098,-0.232 -0.236,-0.433 -0.407,-0.606 -0.174,-0.173 -0.375,-0.309 -0.608,-0.407 -0.23,-0.1 -0.476,-0.149 -0.739,-0.149 l -0.518,0 c -0.26,0 -0.507,0.049 -0.739,0.149 -0.232,0.098 -0.434,0.234 -0.607,0.407 -0.172,0.173 -0.307,0.374 -0.407,0.606 -0.098,0.232 -0.147,0.478 -0.147,0.74 l 0,2.918 c 0,0.262 0.049,0.508 0.147,0.739 0.1,0.232 0.235,0.433 0.407,0.607 0.173,0.172 0.375,0.308 0.607,0.408 0.232,0.099 0.479,0.147 0.739,0.147 l 0.518,0 c 0.263,0 0.509,-0.048 0.739,-0.147 0.233,-0.1 0.434,-0.236 0.608,-0.408 0.171,-0.174 0.309,-0.375 0.407,-0.607 0.098,-0.231 0.148,-0.477 0.148,-0.739 l 0,-2.918 c 0,-0.262 -0.05,-0.508 -0.148,-0.74 m -0.629,3.702 c 0,0.156 -0.03,0.302 -0.087,0.439 -0.061,0.137 -0.14,0.256 -0.241,0.357 -0.102,0.102 -0.22,0.181 -0.358,0.239 -0.137,0.06 -0.282,0.09 -0.439,0.09 l -0.518,0 c -0.155,0 -0.301,-0.03 -0.439,-0.09 -0.136,-0.058 -0.255,-0.137 -0.357,-0.239 -0.1,-0.101 -0.18,-0.22 -0.239,-0.357 -0.059,-0.137 -0.088,-0.283 -0.088,-0.439 l 0,-3.007 c 0,-0.156 0.029,-0.302 0.088,-0.439 0.059,-0.136 0.139,-0.256 0.239,-0.357 0.102,-0.101 0.221,-0.181 0.357,-0.24 0.138,-0.059 0.284,-0.089 0.439,-0.089 l 0.518,0 c 0.157,0 0.302,0.03 0.439,0.089 0.138,0.059 0.256,0.139 0.358,0.24 0.101,0.101 0.18,0.221 0.241,0.357 0.057,0.137 0.087,0.283 0.087,0.439"
           style="fill:#005067;fill-opacity:1;fill-rule:nonzero;stroke:none"
           id="path326" /><path
           d="m 230.865,747.438 c -0.156,0 -0.303,-0.029 -0.439,-0.088 -0.136,-0.059 -0.256,-0.139 -0.357,-0.24 -0.101,-0.102 -0.18,-0.22 -0.24,-0.357 -0.059,-0.137 -0.088,-0.283 -0.088,-0.439 l 0,-4.606 -0.777,0 0,6.47 0.259,0 0.423,-0.657 c 0.177,0.24 0.399,0.43 0.666,0.571 0.268,0.141 0.559,0.212 0.875,0.212 l 0.454,0 0,-0.866"
           style="fill:#005067;fill-opacity:1;fill-rule:nonzero;stroke:none"
           id="path328" /><path
           d="m 239.508,741.708 0,4.738 c 0,0.156 -0.03,0.302 -0.089,0.439 -0.059,0.137 -0.139,0.256 -0.24,0.357 -0.101,0.102 -0.22,0.181 -0.357,0.24 -0.137,0.059 -0.284,0.089 -0.439,0.089 l -0.385,0 c -0.156,0 -0.302,-0.03 -0.44,-0.089 -0.137,-0.059 -0.256,-0.138 -0.359,-0.24 -0.103,-0.101 -0.185,-0.22 -0.244,-0.357 -0.059,-0.137 -0.089,-0.283 -0.089,-0.439 l 0,-4.738 -0.771,0 0,4.738 c 0,0.156 -0.029,0.302 -0.088,0.439 -0.059,0.137 -0.14,0.256 -0.243,0.357 -0.103,0.102 -0.223,0.181 -0.36,0.24 -0.137,0.059 -0.283,0.089 -0.438,0.089 l -0.387,0 c -0.155,0 -0.302,-0.03 -0.439,-0.089 -0.136,-0.059 -0.255,-0.138 -0.357,-0.24 -0.1,-0.101 -0.181,-0.22 -0.239,-0.357 -0.059,-0.137 -0.089,-0.283 -0.089,-0.439 l 0,-4.738 -0.777,0 0,6.469 0.259,0 0.423,-0.657 c 0.177,0.24 0.399,0.431 0.667,0.572 0.267,0.141 0.559,0.212 0.875,0.212 l 0.064,0 c 0.365,0 0.696,-0.091 0.991,-0.272 0.294,-0.181 0.522,-0.421 0.683,-0.72 0.079,0.147 0.178,0.283 0.296,0.404 0.118,0.122 0.248,0.227 0.392,0.313 0.143,0.086 0.299,0.154 0.467,0.202 0.169,0.048 0.343,0.073 0.524,0.073 l 0.064,0 c 0.261,0 0.508,-0.05 0.739,-0.148 0.232,-0.099 0.434,-0.236 0.607,-0.407 0.172,-0.174 0.308,-0.376 0.407,-0.608 0.099,-0.231 0.149,-0.478 0.149,-0.739 l 0,-4.694"
           style="fill:#005067;fill-opacity:1;fill-rule:nonzero;stroke:none"
           id="path330" /><path
           d="m 245.901,741.708 -0.43,0.645 c -0.176,-0.232 -0.398,-0.419 -0.662,-0.56 -0.266,-0.141 -0.557,-0.211 -0.873,-0.211 l -0.195,0 c -0.262,0 -0.508,0.049 -0.74,0.148 -0.231,0.099 -0.434,0.234 -0.606,0.408 -0.174,0.173 -0.309,0.374 -0.407,0.606 -0.099,0.232 -0.149,0.478 -0.149,0.739 l 0,0.063 c 0,0.261 0.05,0.508 0.149,0.739 0.098,0.233 0.233,0.434 0.407,0.607 0.172,0.173 0.375,0.309 0.606,0.407 0.232,0.1 0.478,0.149 0.74,0.149 l 1.643,0 0,0.998 c 0,0.156 -0.03,0.302 -0.089,0.439 -0.059,0.137 -0.14,0.256 -0.24,0.357 -0.101,0.102 -0.22,0.181 -0.357,0.241 -0.137,0.058 -0.284,0.088 -0.439,0.088 l -0.455,0 c -0.156,0 -0.302,-0.03 -0.44,-0.088 -0.136,-0.06 -0.255,-0.139 -0.356,-0.241 -0.103,-0.101 -0.181,-0.22 -0.24,-0.357 -0.059,-0.137 -0.089,-0.283 -0.089,-0.439 l 0,-0.233 -0.776,0.127 0,0.063 c 0,0.26 0.049,0.507 0.148,0.738 0.099,0.232 0.235,0.434 0.408,0.607 0.171,0.172 0.374,0.308 0.605,0.408 0.232,0.099 0.479,0.147 0.74,0.147 l 0.455,0 c 0.261,0 0.508,-0.048 0.739,-0.147 0.231,-0.1 0.434,-0.236 0.607,-0.408 0.172,-0.173 0.308,-0.375 0.407,-0.607 0.098,-0.231 0.149,-0.478 0.149,-0.738 l 0,-4.695 -0.26,0 z m -0.517,3.134 -1.643,0 c -0.157,0 -0.302,-0.03 -0.44,-0.089 -0.137,-0.059 -0.255,-0.14 -0.356,-0.243 -0.102,-0.103 -0.181,-0.223 -0.24,-0.36 -0.059,-0.137 -0.088,-0.283 -0.088,-0.438 l 0,-0.273 c 0,-0.156 0.029,-0.303 0.088,-0.439 0.059,-0.137 0.138,-0.256 0.24,-0.357 0.101,-0.101 0.219,-0.181 0.356,-0.24 0.138,-0.059 0.283,-0.089 0.44,-0.089 l 0.518,0 c 0.155,0 0.302,0.03 0.439,0.089 0.137,0.059 0.256,0.139 0.357,0.24 0.1,0.101 0.181,0.22 0.24,0.357 0.059,0.136 0.089,0.283 0.089,0.439"
           style="fill:#005067;fill-opacity:1;fill-rule:nonzero;stroke:none"
           id="path332" /><path
           d="m 250.071,741.708 c -0.236,0 -0.458,0.045 -0.666,0.133 -0.209,0.088 -0.391,0.21 -0.544,0.366 -0.153,0.156 -0.276,0.337 -0.366,0.543 -0.091,0.208 -0.136,0.428 -0.136,0.664 l 0,4.024 -1.162,0 0,0.739 1.162,0 0,1.554 0.777,0.127 0,-1.681 1.643,0 0,-0.739 -1.643,0 0,-4.062 c 0,-0.131 0.024,-0.252 0.072,-0.363 0.049,-0.112 0.115,-0.209 0.2,-0.294 0.084,-0.085 0.183,-0.151 0.297,-0.199 0.113,-0.049 0.235,-0.072 0.366,-0.072 l 0.708,0 0,-0.74"
           style="fill:#005067;fill-opacity:1;fill-rule:nonzero;stroke:none"
           id="path334" /><path
           d="m 252.401,749.732 0.90391,0 0,1.03594 -0.90391,0 0,-1.03594 z m 0.064,-8.024 0.77695,0 0,6.46875 -0.77695,0 0,-6.46875 z"
           style="fill:#005067;fill-opacity:1;fill-rule:nonzero;stroke:none"
           id="path336" /><path
           d="m 264.993,741.708 -0.43,0.657 c -0.177,-0.24 -0.398,-0.431 -0.664,-0.572 -0.265,-0.141 -0.555,-0.211 -0.871,-0.211 l -0.196,0 c -0.261,0 -0.508,0.049 -0.739,0.148 -0.232,0.099 -0.434,0.234 -0.607,0.408 -0.172,0.173 -0.309,0.374 -0.407,0.606 -0.099,0.232 -0.149,0.478 -0.149,0.74 l 0,4.693 0.777,0 0,-4.738 c 0,-0.156 0.029,-0.303 0.089,-0.439 0.059,-0.137 0.139,-0.256 0.24,-0.357 0.101,-0.101 0.22,-0.18 0.357,-0.24 0.136,-0.059 0.284,-0.089 0.439,-0.089 l 0.517,0 c 0.156,0 0.302,0.03 0.44,0.089 0.137,0.06 0.256,0.139 0.356,0.24 0.102,0.101 0.182,0.22 0.241,0.357 0.059,0.136 0.088,0.283 0.088,0.439 l 0,4.738 0.778,0 0,-6.469"
           style="fill:#005067;fill-opacity:1;fill-rule:nonzero;stroke:none"
           id="path340" /><path
           d="m 270.979,742.744 c -0.099,-0.232 -0.235,-0.433 -0.408,-0.606 -0.172,-0.173 -0.375,-0.309 -0.606,-0.407 -0.232,-0.1 -0.478,-0.149 -0.739,-0.149 l -0.518,0 c -0.261,0 -0.508,0.049 -0.739,0.149 -0.231,0.098 -0.434,0.234 -0.607,0.407 -0.173,0.173 -0.309,0.374 -0.408,0.606 -0.098,0.232 -0.148,0.478 -0.148,0.74 l 0,2.918 c 0,0.262 0.05,0.508 0.148,0.739 0.099,0.232 0.235,0.433 0.408,0.607 0.173,0.172 0.376,0.308 0.607,0.408 0.231,0.099 0.478,0.147 0.739,0.147 l 0.518,0 c 0.261,0 0.507,-0.048 0.739,-0.147 0.231,-0.1 0.434,-0.236 0.606,-0.408 0.173,-0.174 0.309,-0.375 0.408,-0.607 0.099,-0.231 0.149,-0.477 0.149,-0.739 l 0,-1.523 -3.544,0 0,-1.44 c 0,-0.156 0.029,-0.302 0.088,-0.439 0.058,-0.136 0.139,-0.256 0.239,-0.357 0.103,-0.101 0.221,-0.181 0.358,-0.24 0.136,-0.059 0.283,-0.089 0.439,-0.089 l 0.518,0 c 0.156,0 0.301,0.03 0.439,0.089 0.136,0.059 0.256,0.139 0.356,0.24 0.102,0.101 0.182,0.221 0.241,0.357 0.059,0.137 0.088,0.283 0.088,0.439 l 0,0.43 0.778,-0.128 0,-0.257 c 0,-0.262 -0.05,-0.508 -0.149,-0.74 m -0.629,3.702 c 0,0.156 -0.029,0.302 -0.088,0.439 -0.059,0.137 -0.139,0.256 -0.241,0.357 -0.1,0.102 -0.22,0.181 -0.356,0.239 -0.138,0.06 -0.283,0.09 -0.439,0.09 l -0.518,0 c -0.156,0 -0.303,-0.03 -0.439,-0.09 -0.137,-0.058 -0.255,-0.137 -0.358,-0.239 -0.1,-0.101 -0.181,-0.22 -0.239,-0.357 -0.059,-0.137 -0.088,-0.283 -0.088,-0.439 l 0,-0.96 2.766,0"
           style="fill:#005067;fill-opacity:1;fill-rule:nonzero;stroke:none"
           id="path342" /><path
           d="m 277.129,743.351 c 0,-0.262 -0.053,-0.501 -0.159,-0.717 -0.105,-0.218 -0.248,-0.404 -0.428,-0.559 -0.182,-0.156 -0.392,-0.278 -0.629,-0.364 -0.238,-0.086 -0.488,-0.129 -0.749,-0.129 l -0.519,0 c -0.261,0 -0.51,0.049 -0.748,0.149 -0.238,0.098 -0.446,0.234 -0.625,0.407 -0.179,0.173 -0.323,0.374 -0.43,0.606 -0.108,0.232 -0.161,0.478 -0.161,0.74 l 0,0.258 0.777,0.127 0,-0.43 c 0,-0.156 0.033,-0.302 0.098,-0.439 0.065,-0.137 0.153,-0.256 0.262,-0.357 0.109,-0.101 0.235,-0.181 0.38,-0.24 0.142,-0.059 0.291,-0.088 0.447,-0.088 l 0.519,0 c 0.156,0 0.305,0.023 0.449,0.069 0.142,0.046 0.269,0.113 0.382,0.199 0.111,0.086 0.2,0.191 0.265,0.313 0.066,0.122 0.098,0.261 0.098,0.417 0,0.231 -0.05,0.421 -0.152,0.568 -0.101,0.148 -0.235,0.271 -0.401,0.37 -0.167,0.099 -0.356,0.181 -0.569,0.247 -0.213,0.065 -0.431,0.13 -0.654,0.195 -0.222,0.065 -0.44,0.14 -0.653,0.225 -0.213,0.084 -0.402,0.195 -0.569,0.331 -0.166,0.137 -0.3,0.308 -0.401,0.515 -0.102,0.206 -0.152,0.463 -0.152,0.77 0,0.263 0.05,0.501 0.152,0.718 0.101,0.217 0.237,0.403 0.411,0.559 0.173,0.156 0.373,0.277 0.603,0.363 0.23,0.087 0.475,0.129 0.736,0.129 l 0.455,0 c 0.261,0 0.507,-0.049 0.739,-0.147 0.231,-0.1 0.435,-0.236 0.607,-0.408 0.172,-0.173 0.308,-0.375 0.407,-0.607 0.099,-0.231 0.149,-0.477 0.149,-0.739 l 0,-0.025 -0.778,-0.126 0,0.195 c 0,0.156 -0.03,0.302 -0.088,0.439 -0.059,0.137 -0.139,0.256 -0.24,0.357 -0.102,0.102 -0.22,0.181 -0.357,0.24 -0.137,0.059 -0.283,0.089 -0.439,0.089 l -0.455,0 c -0.156,0 -0.301,-0.023 -0.439,-0.069 -0.137,-0.047 -0.256,-0.113 -0.356,-0.2 -0.103,-0.086 -0.182,-0.19 -0.241,-0.313 -0.059,-0.121 -0.088,-0.26 -0.088,-0.416 0,-0.223 0.05,-0.406 0.151,-0.547 0.102,-0.141 0.235,-0.26 0.402,-0.357 0.165,-0.096 0.354,-0.178 0.567,-0.243 0.213,-0.065 0.43,-0.133 0.652,-0.202 0.22,-0.069 0.437,-0.148 0.65,-0.238 0.213,-0.088 0.402,-0.201 0.569,-0.34 0.166,-0.139 0.299,-0.313 0.401,-0.521 0.101,-0.209 0.152,-0.467 0.152,-0.774"
           style="fill:#005067;fill-opacity:1;fill-rule:nonzero;stroke:none"
           id="path344" /><path
           d="m 284.154,746.238 -5.534,2.458 0,0.891 6.469,-2.882 0,-0.921 -6.469,-2.888 0,0.897"
           style="fill:#e84e0f;fill-opacity:1;fill-rule:nonzero;stroke:none"
           id="path346" /></g></g></g></svg>